# xmcd
#
# Track frame offsets: 
#        150
#        18688
#        35151
#        49443
#        65316
#        76803
#        92448
#        106695
#        120405
#        135189
#        142623
#        157297
#
# Disc length: 2362 seconds
#
# Revision: 0
# Processed by: cddbd v1.5.2PL0 Copyright (c) Steve Scherf et al.
# Submitted via: ExactAudioCopy v0.99pb5
#
DISCID=9209380c
DTITLE=Matt Tyner - Six A' One, Half Dozen' The Other
DYEAR=2006
DGENRE=
TTITLE0=Rollin' &Tumblin'
TTITLE1=Boot Hill
TTITLE2=I Feel Like Going Home
TTITLE3=Stranger Blues
TTITLE4=I  Can't Be Satisfied
TTITLE5=Love In Vain
TTITLE6=Howlin' at the Moon
TTITLE7=Billie Rose
TTITLE8=Shameful
TTITLE9=Shelby Delby Puddin' Pie
TTITLE10=Melancholy Song
TTITLE11=Bloddy Knuckles
EXTD=
EXTT0=
EXTT1=
EXTT2=
EXTT3=
EXTT4=
EXTT5=
EXTT6=
EXTT7=
EXTT8=
EXTT9=
EXTT10=
EXTT11=
PLAYORDER=
